<svg xmlns="http://www.w3.org/2000/svg" width="16" height="16" viewBox="0 0 16 16">
    <g fill="none" fill-rule="evenodd">
        <path fill="#F9E000" d="M2 5H14V10H2z"/>
        <path fill="#381E1F" d="M8 1.6c4.418 0 8 2.774 8 6.196 0 3.422-3.582 6.195-8 6.195-.507 0-1.004-.037-1.485-.107-.887.591-2.94 1.96-3.079 2.05-.175.114-.443.12-.334-.307.087-.343.526-1.948.693-2.56C1.517 11.975 0 10.023 0 7.796 0 4.374 3.582 1.6 8 1.6zm3.227 4.3c-.218 0-.44.088-.435.257.008.308-.01 3.09-.01 3.296 0 .326.845.325.845 0V8.358l.249-.195 1.085 1.451c.22.284.91-.229.69-.512L12.5 7.614s.782-.829 1.09-1.129c.18-.175-.376-.725-.556-.55-.175.17-1.4 1.372-1.4 1.372s.01-.755 0-1.172c-.005-.158-.203-.235-.406-.235zm-4.918-.002c-.194 0-.382.069-.462.242-.203.437-.935 2.501-1.178 3.049-.176.396.582.718.758.323l.165-.565h1.506s-.052.023.149.54c.162.42.944.13.782-.29C7.797 8.6 6.997 6.445 6.85 6.14c-.067-.142-.309-.242-.542-.242zm2.454 0c-.223 0-.446.124-.446.37l.001.488.003 2.476s-.066.45.327.45c.394 0 1.267-.005 1.654-.005.386 0 .385-.807-.002-.807h-.216c-.387 0-.878-.004-.878-.004v-.465c.002-.647.003-1.779.003-2.134-.001-.246-.223-.369-.446-.369zm-6.345-.016c-.483 0-.482.773 0 .773h.824v.214c.002.569.005 2.1.001 2.518.001.377.857.382.856.006l.003-2.709h.132l.688.002c.512 0 .512-.788 0-.789-.577 0-2.504-.015-2.504-.015zm3.942.917l.458 1.406h-.955l.497-1.406z"/>
    </g>
</svg>
